Inverse Dynamics Generalized Forces
version=1
nRows=8
nColumns=34
inDegrees=no
endheader 
time	pelvis_tilt_moment	pelvis_list_moment	pelvis_rotation_moment	pelvis_tx_force	pelvis_ty_force	pelvis_tz_force	hip_flexion_l_moment	hip_adduction_l_moment	hip_rotation_l_moment	hip_flexion_r_moment	hip_adduction_r_moment	hip_rotation_r_moment	knee_angle_l_moment	knee_angle_r_moment	ankle_angle_l_moment	ankle_angle_r_moment	subtalar_angle_l_moment	subtalar_angle_r_moment	mtp_angle_l_moment	mtp_angle_r_moment	lumbar_extension_moment	lumbar_bending_moment	lumbar_rotation_moment	arm_flex_l_moment	arm_add_l_moment	arm_rot_l_moment	arm_flex_r_moment	arm_add_r_moment	arm_rot_r_moment	elbow_flex_l_moment	elbow_flex_r_moment	pro_sup_l_moment	pro_sup_r_moment	
          3.85000000	          0.00000000	          0.00000000	          0.00000000	          0.00000000	          0.00000000	         -0.00000000	        -30.13770330	          7.29831079	          5.89396173	        -38.60253518	         27.25751780	         -6.33864090	          9.95250974	         20.48282052	          7.47823057	         -1.44999013	         -0.27155153	          3.84962950	         -0.44269371	         -3.40075064	         77.93198898	        -38.94124937	        -21.86304016	       -151.04285776	        150.20023963	        -24.40927543	        -16.70519157	          0.12043278	         31.49432073	        -27.22744448	       -146.08019790	         -0.64926200	          6.67169559	
          3.86000000	          0.00000000	          0.00000000	          0.00000000	          0.00000000	          0.00000000	         -0.00000000	         -0.91614983	         39.29820172	          6.23317183	        -28.46889499	         31.38323853	        -11.20376794	         -2.14218239	         28.52213585	         11.05394337	          0.08954480	         -1.23887272	          4.26114442	         -0.48774723	         -3.72702912	         -2.31155247	        -35.25449588	         33.26727524	       -150.71088176	        150.13946086	        -22.44528917	         24.76216857	         37.58510900	         52.37566207	        -32.12052119	        -71.44835754	         -0.05747603	          2.58830818	
          3.87000000	          0.00000000	          0.00000000	          0.00000000	          0.00000000	          0.00000000	          0.00000000	        -19.54415102	         23.54297876	         28.84162409	        -18.32701645	         25.63570737	        -12.20127182	         11.26807676	         30.56955025	          7.04818212	          0.69551266	         -0.07157064	          4.06006790	         -0.34533499	         -2.42729482	        -17.47741317	        -41.75306575	         46.34910412	       -128.47734516	        150.01199141	        -17.56882024	         55.91549260	         65.63236887	         75.55874728	        -37.80099212	        -15.68339876	          0.56456404	          0.33042756	
          3.88000000	          0.00000000	          0.00000000	          0.00000000	          0.00000000	          0.00000000	          0.00000000	          6.29940965	          8.15650122	         33.68632893	        -52.00684440	         17.93002250	        -25.44544710	         12.62351590	         38.90483627	        -51.42101745	         -0.00905400	         15.87207653	          3.58047610	         -0.83042517	         -1.33294056	          0.06741442	        -47.18420203	         97.94081232	        -59.19678959	        145.41314152	         -9.36229095	         79.22581516	         86.61099442	         93.34704780	        -43.86899807	         25.87119129	          0.93915316	         -0.14235204	
          3.89000000	         -0.00000000	          0.00000000	          0.00000000	         -0.00000000	          0.00000000	         -0.00000000	         -1.68820532	         17.00616859	         16.65040493	        -48.41863892	         11.50456761	        -25.21749400	       -113.55011661	         40.42244425	        -12.95872579	         -1.01602160	         -1.51691737	          1.15001802	         -0.44919422	         -0.23456187	         74.60225776	         28.46006369	         71.61609775	        -10.34894439	        132.79019017	         -3.17950514	         90.00038586	        102.27307513	        106.61106802	        -41.83564676	         56.72110998	          1.13957374	         -1.22109930	
          3.90000000	          0.00000000	          0.00000000	          0.00000000	         -0.00000000	          0.00000000	         -0.00000000	        -28.83205121	        -50.69575159	         43.24403766	        -68.19419254	          9.62071893	        -31.28002123	       -100.34286828	         41.74677549	        -73.62995578	         -1.58649740	         12.64303914	          0.30830493	          4.36103791	          0.14056146	        130.61227539	        -31.41966559	         31.77879232	         13.70029732	        122.16503453	         -1.08164325	         55.94339463	        106.18808178	        116.42601440	        -38.71291346	         70.90126191	          0.99722997	         -1.45739040	
          3.91000000	          0.00000000	          0.00000000	          0.00000000	         -0.00000000	          0.00000000	         -0.00000000	        -55.20861419	        -35.87935441	         31.32169534	        -64.06106841	         15.97631080	        -27.13658582	        -70.38515156	         43.76893372	        -83.22442359	         -1.66942468	         13.53542693	         -0.12615747	          6.28949780	          0.24924349	        151.87590119	        -16.12558306	          2.44826125	         47.47328037	        126.78315488	          2.07041979	         34.34547547	         42.34878136	         80.37533811	        -43.24126225	         15.75515387	          1.40650711	          0.52065564	
          3.92000000	          0.00000006	          0.00000002	         -0.00000000	          0.00000005	         -0.00000002	         -0.00000002	        -54.99510914	        -25.23438531	         23.36485111	        -30.18254519	         16.26699494	        -22.13772808	        -55.72097167	         31.44587773	        -79.09930802	         -0.67574962	         14.50523296	         -0.35206438	          7.29258088	          0.17256153	        103.95090644	          0.14530066	        -26.47178933	         72.79506811	        132.21817023	          4.57595655	        -11.64715457	         -5.42923999	         32.28942060	        -46.89706582	        -24.97769660	          1.75454742	          2.43368474	
